<svg width="318" height="92" viewBox="0 0 318 92" fill="none" xmlns="http://www.w3.org/2000/svg">
<g filter="url(#filter0_d)">
<path d="M134.515 68.2845C135.069 68.2868 135.495 68.5445 135.791 69.0578C136.131 69.5712 136.298 70.2759 136.295 71.1719C136.288 72.8785 135.877 74.1995 135.062 75.1348C133.218 77.3885 131.205 79.2362 129.023 80.6779C126.884 82.1197 124.449 82.8349 121.718 82.8236C117.964 82.8081 115.176 81.0899 113.356 77.669C111.578 74.2482 110.7 69.8286 110.722 64.41C110.744 59.2047 111.43 53.2768 112.78 46.6263C114.173 39.976 116.181 34.267 118.803 29.4991C121.468 24.7314 124.614 22.3551 128.241 22.3701C130.289 22.3786 131.885 23.3452 133.029 25.27C134.216 27.1522 134.802 29.864 134.787 33.4053C134.766 38.4826 133.334 44.3647 130.49 51.0517C127.646 57.7386 123.8 64.3574 118.952 70.9081C119.243 72.6586 119.728 73.9193 120.408 74.6901C121.088 75.4183 121.982 75.7847 123.091 75.7893C124.841 75.7965 126.379 75.3122 127.706 74.3363C129.032 73.3178 130.725 71.5968 132.783 69.1733C133.297 68.5781 133.875 68.2818 134.515 68.2845ZM126.806 28.7002C125.825 28.6962 124.708 30.4622 123.456 33.9984C122.204 37.5346 121.098 41.9247 120.138 47.1688C119.178 52.4129 118.645 57.4454 118.539 62.2663C121.589 57.2869 124.021 52.3049 125.833 47.3204C127.646 42.2932 128.561 37.7102 128.578 33.5716C128.592 30.329 128.001 28.7052 126.806 28.7002ZM139.919 48.5307C138.127 48.5233 136.785 48.1124 135.892 47.298C135 46.441 134.557 45.2658 134.563 43.7725C134.569 42.2791 135.15 41.0442 136.306 40.0677C137.505 39.0486 138.979 38.5427 140.729 38.5499C142.307 38.5565 143.586 38.9458 144.564 39.7178C145.542 40.4899 146.028 41.5799 146.022 42.9879C146.015 44.6946 145.455 46.0576 144.341 47.077C143.228 48.0537 141.754 48.5383 139.919 48.5307ZM139.265 82.8963C136.492 82.8848 134.469 81.8951 133.197 79.9271C131.968 77.9594 131.36 75.3542 131.374 72.1115C131.382 70.1915 131.627 67.7392 132.108 64.7545C132.633 61.7273 133.284 58.914 134.063 56.3145C134.453 54.9508 134.969 54.0142 135.611 53.5049C136.253 52.9955 137.278 52.7438 138.686 52.7496C140.862 52.7586 141.947 53.4885 141.941 54.9391C141.937 56.0058 141.521 58.4787 140.694 62.358C139.651 67.0471 139.126 70.2236 139.119 71.8876C139.113 73.1676 139.28 74.1496 139.619 74.8337C139.957 75.5177 140.532 75.8615 141.342 75.8648C142.11 75.868 143.072 75.3386 144.229 74.2767C145.385 73.2149 146.928 71.5359 148.858 69.2399C149.372 68.6447 149.949 68.3484 150.589 68.351C151.144 68.3533 151.57 68.6111 151.866 69.1243C152.205 69.6377 152.373 70.3424 152.37 71.2384C152.362 72.9451 151.952 74.266 151.137 75.2014C146.892 80.3465 142.934 82.9115 139.265 82.8963ZM152.007 82.949C150.386 82.9423 149.237 82.0842 148.562 80.3747C147.929 78.6654 147.62 75.9335 147.636 72.1788C147.659 66.6322 148.47 61.3662 150.069 56.3808C150.458 55.145 151.081 54.2516 151.936 53.7005C152.835 53.1069 154.073 52.8133 155.652 52.8198C156.505 52.8234 157.102 52.9325 157.442 53.1473C157.783 53.362 157.952 53.768 157.949 54.3654C157.947 55.048 157.62 56.5827 156.97 58.9694C156.537 60.6742 156.189 62.1662 155.928 63.4451C155.667 64.724 155.447 66.3018 155.268 68.1784C156.691 64.5149 158.282 61.5348 160.041 59.2381C161.8 56.9413 163.514 55.3057 165.182 54.3313C166.892 53.3571 168.452 52.8728 169.86 52.8787C172.633 52.8901 174.014 54.2825 174.002 57.0558C173.996 58.7198 173.514 61.7259 172.557 66.0739C171.731 69.7826 171.316 72.2342 171.311 73.4288C171.304 75.1355 171.919 75.9914 173.156 75.9965C174.009 76 175.014 75.4922 176.17 74.473C177.369 73.4113 178.955 71.7111 180.928 69.3726C181.442 68.7774 182.019 68.4811 182.659 68.4838C183.214 68.4861 183.639 68.7438 183.936 69.2571C184.275 69.7705 184.443 70.4752 184.439 71.3712C184.432 73.0778 184.021 74.3988 183.207 75.3341C181.363 77.5878 179.371 79.4356 177.232 80.8774C175.135 82.3194 172.743 83.0349 170.055 83.0237C167.879 83.0147 166.239 82.3893 165.135 81.1473C164.031 79.8628 163.484 78.0258 163.493 75.6365C163.498 74.4419 163.806 72.3098 164.416 69.2403C164.982 66.5546 165.267 64.6998 165.271 63.6758C165.274 62.9931 165.041 62.6508 164.571 62.6489C164.017 62.6466 163.224 63.3686 162.194 64.815C161.207 66.219 160.175 68.092 159.099 70.4343C158.065 72.7767 157.223 75.2479 156.572 77.8479C156.095 79.8512 155.534 81.2143 154.891 81.937C154.291 82.6171 153.33 82.9545 152.007 82.949ZM206.761 76.1996C208.509 76.5482 209.38 77.5118 209.374 79.0905C209.369 80.1571 208.874 81.1151 207.89 81.9643C206.948 82.7711 205.581 83.1708 203.789 83.1634C200.717 83.1507 198.203 82.2016 196.248 80.3161C194.336 78.3882 193.387 75.8883 193.399 72.8163C193.406 71.1523 194.265 69.9612 195.974 69.2429C197.855 68.44 199.202 67.5923 200.017 66.6996C200.831 65.7643 201.241 64.6353 201.247 63.3127C201.25 62.5447 201.082 61.968 200.742 61.5826C200.445 61.1973 200.062 61.0038 199.592 61.0018C198.44 60.997 197.157 61.8237 195.742 63.4819C194.37 65.1402 193.081 67.2896 191.875 69.9299C190.67 72.5276 189.72 75.2117 189.026 77.9822C188.548 79.9856 187.988 81.3486 187.345 82.0713C186.745 82.7515 185.783 83.0888 184.461 83.0834C183.138 83.0779 182.159 82.6045 181.523 81.6632C180.929 80.6794 180.53 79.1844 180.325 77.1782C180.12 75.172 180.026 72.2276 180.042 68.3449C180.069 61.7743 180.759 54.9291 182.111 47.8093C183.506 40.6897 185.514 34.7246 188.137 29.9141C190.802 25.0611 193.97 22.6422 197.639 22.6574C199.602 22.6655 201.177 23.5254 202.364 25.237C203.595 26.9061 204.204 29.0846 204.193 31.7726C204.176 36.0819 202.898 40.5567 200.362 45.1969C197.825 49.7944 193.707 55.1747 188.007 61.3379C187.87 63.556 187.796 65.8384 187.786 68.185C189.857 62.8602 192.219 59.0086 194.874 56.6302C197.53 54.2092 200.009 53.0035 202.313 53.013C204.447 53.0218 206.15 53.7542 207.424 55.2102C208.741 56.6663 209.395 58.461 209.386 60.5944C209.376 62.941 208.77 65.0932 207.567 67.0509C206.365 69.0086 204.309 70.7494 201.402 72.2734C201.652 73.5545 202.161 74.4526 202.927 74.9677C203.735 75.4404 205.014 75.8511 206.761 76.1996ZM196.269 28.9878C195.501 28.9846 194.643 30.0904 193.695 32.3052C192.747 34.4773 191.818 37.4388 190.906 41.1897C190.038 44.8981 189.317 48.9485 188.744 53.3408C191.402 50.2372 193.592 46.8542 195.314 43.192C197.079 39.5299 197.967 36.2055 197.979 33.2189C197.985 31.8536 197.84 30.8076 197.544 30.0811C197.249 29.3545 196.823 28.9901 196.269 28.9878Z" fill="#F2F2F2"/>
</g>
<path d="M216.48 33.9348C218.478 30.8831 219.454 27.1189 219.281 23.228L215.83 21.9082C215.407 21.7462 215.088 21.3474 215.008 20.8966C214.736 19.4612 214.244 18.0128 213.534 16.6335C213.22 16.0217 213.411 15.2906 213.959 15.0088L217.438 13.2206C217.986 12.9388 218.692 13.2088 219.007 13.8206C224.376 24.2653 221.142 36.6293 211.783 41.4405C211.234 41.7223 210.528 41.4523 210.214 40.8405L208.213 36.9474C207.898 36.3356 208.089 35.6045 208.638 35.3227C209.884 34.6822 210.965 33.8449 211.87 32.8595C212.156 32.5578 212.591 32.447 213.03 32.6149L216.48 33.9348Z" fill="#F2F2F2"/>
<defs>
<filter id="filter0_d" x="106.722" y="22.37" width="106.664" height="68.7934" filterUnits="userSpaceOnUse" color-interpolation-filters="sRGB">
<feFlood flood-opacity="0" result="BackgroundImageFix"/>
<feColorMatrix in="SourceAlpha" type="matrix" values="0 0 0 0 0 0 0 0 0 0 0 0 0 0 0 0 0 0 127 0"/>
<feOffset dy="4"/>
<feGaussianBlur stdDeviation="2"/>
<feColorMatrix type="matrix" values="0 0 0 0 0 0 0 0 0 0 0 0 0 0 0 0 0 0 0.25 0"/>
<feBlend mode="normal" in2="BackgroundImageFix" result="effect1_dropShadow"/>
<feBlend mode="normal" in="SourceGraphic" in2="effect1_dropShadow" result="shape"/>
</filter>
</defs>
</svg>
